<?xml version="1.0" encoding="utf-8"?>
<!-- Generator: Adobe Illustrator 26.0.1, SVG Export Plug-In . SVG Version: 6.00 Build 0)  -->
<svg version="1.1" id="Layer_1" xmlns="http://www.w3.org/2000/svg" xmlns:xlink="http://www.w3.org/1999/xlink" x="0px" y="0px"
	 viewBox="0 0 458 449" style="enable-background:new 0 0 458 449;" xml:space="preserve">
<style type="text/css">
	.st0{fill:#DDDDDD;}
</style>
<polygon class="st0" points="110.5,307 121.3,304.3 124,293.5 126.7,304.3 137.5,307 126.7,309.7 124,320.5 121.3,309.7 "/>
<polygon class="st0" points="257.5,27 268.3,24.3 271,13.5 273.7,24.3 284.5,27 273.7,29.7 271,40.5 268.3,29.7 "/>
<polygon class="st0" points="209,186 212,192 215,186 221,183 215,180 212,174 209,180 203,183 "/>
<polygon class="st0" points="102,67 105,73 108,67 114,64 108,61 105,55 102,61 96,64 "/>
<polygon class="st0" points="383.1,253.9 380.2,259.8 386.1,256.9 389,271.5 391.9,256.9 397.8,259.8 394.9,253.9 409.5,251 
	394.9,248.1 397.8,242.2 391.9,245.1 389,230.5 386.1,245.1 380.2,242.2 383.1,248.1 368.5,251 "/>
<polygon class="st0" points="35.1,410.9 32.2,416.8 38.1,413.9 41,428.5 43.9,413.9 49.8,416.8 46.9,410.9 61.5,408 46.9,405.1 
	49.8,399.2 43.9,402.1 41,387.5 38.1,402.1 32.2,399.2 35.1,405.1 20.5,408 "/>
<rect x="370.8" y="78.8" transform="matrix(0.7071 -0.7071 0.7071 0.7071 51.5597 288.4787)" class="st0" width="6.4" height="6.4"/>
<rect x="249.8" y="381.8" transform="matrix(0.7071 -0.7071 0.7071 0.7071 -198.1351 291.6688)" class="st0" width="6.4" height="6.4"/>
<rect x="37.8" y="206.8" transform="matrix(0.7071 -0.7071 0.7071 0.7071 -136.4799 90.5036)" class="st0" width="6.4" height="6.4"/>
</svg>
