<?xml version="1.0" encoding="utf-8"?>
<!-- Generator: Adobe Illustrator 26.0.1, SVG Export Plug-In . SVG Version: 6.00 Build 0)  -->
<svg version="1.1" id="Layer_1" xmlns="http://www.w3.org/2000/svg" xmlns:xlink="http://www.w3.org/1999/xlink" x="0px" y="0px"
	 viewBox="0 0 500 500" style="enable-background:new 0 0 500 500;" xml:space="preserve">
<style type="text/css">
	.st0{fill:#F7CE31;}
</style>
<g id="Layer_2_00000011030189085789735400000001873294974838593424_">
	<g id="Layer_1-2">
		<polygon class="st0" points="500,79.8 500,242.1 249.8,249.9 		"/>
		<polygon class="st0" points="500,443.9 500,500 339.8,500 249.8,249.9 		"/>
		<polygon class="st0" points="249.8,249.9 159.8,500 0,500 0,443.5 		"/>
		<polygon class="st0" points="249.8,249.9 0,242.1 0,80 		"/>
		<polygon class="st0" points="322.5,0 249.8,249.9 177.1,0 		"/>
		<polygon class="st0" points="322.5,0 249.8,249.9 177.1,0 		"/>
		<polygon class="st0" points="0,80 249.8,249.9 0,242.1 		"/>
		<polygon class="st0" points="249.8,249.9 159.8,500 0,500 0,443.5 		"/>
		<polygon class="st0" points="500,443.9 500,500 339.8,500 249.8,249.9 		"/>
		<polygon class="st0" points="500,79.8 500,242.1 249.8,249.9 		"/>
	</g>
</g>
</svg>
